<svg width="71" height="56" viewBox="0 0 71 56" fill="none" xmlns="http://www.w3.org/2000/svg">
<path d="M65.1227 28.2307C62.7312 28.2179 60.7058 28.2579 58.6873 28.1828C55.2635 28.0696 51.8872 27.8055 48.7189 26.2538C45.506 24.6764 43.7606 22.1025 43.8401 18.5997C43.8923 16.4491 44.5278 14.3181 44.9781 12.1991C45.1585 11.3715 45.5752 10.5811 46.0234 9.39269C44.3415 10.2455 43.0309 10.9361 41.6928 11.5711C38.4298 13.1367 35.2279 14.8368 31.8785 16.1741C27.298 18.0299 23.8192 16.398 22.1151 11.7267C21.4482 9.89445 21.2229 7.881 20.8162 5.94129C20.6975 5.35726 20.6639 4.76297 20.5755 4.05769C18.2324 6.57079 16.041 8.99299 13.7712 11.3105C8.47004 16.7152 3.5137 13.5562 1.5059 8.68976C0.968655 7.38833 0.740905 5.92856 0.502268 4.52199C0.374447 3.5759 0.759681 2.66829 1.80587 2.53878C2.75197 2.41096 3.2299 3.1627 3.48587 4.02418C3.75043 4.8708 3.95949 5.74485 4.31158 6.54287C4.72482 7.47533 5.15293 8.41638 5.74123 9.25166C7.40036 11.5973 9.22601 11.9376 11.4871 10.1504C13.0856 8.89252 14.5063 7.39324 15.9247 5.93229C17.2447 4.57312 18.5075 3.14128 19.7703 1.70945C20.4295 0.979815 21.1184 0.267349 22.1885 0.508497C23.4181 0.782297 23.622 1.87141 23.8155 2.8753C24.0697 4.15204 24.1299 5.4556 24.4544 6.71349C24.8434 8.306 25.2707 9.90082 25.8965 11.3922C26.7521 13.4127 27.8868 13.9885 30.0061 13.408C32.0317 12.8527 34.0727 12.1675 35.9869 11.2902C40.0777 9.38964 44.0839 7.36096 48.0987 5.31742C49.0507 4.83612 49.9098 4.61848 50.7436 5.33772C51.5413 6.01634 51.4031 6.90802 51.0499 7.79447C50.4168 9.37179 49.7071 10.9445 49.1569 12.5499C48.68 13.9597 48.2156 15.4163 48.0047 16.8805C47.4314 20.7921 48.8104 22.9363 52.5055 24.2966C55.2821 25.3247 58.1699 25.7827 61.1104 25.8745C63.229 25.9479 65.3482 25.8828 67.4565 25.8709C68.5725 25.8609 69.7267 25.8533 70.2279 27.1141C70.6869 28.3108 69.9716 29.2063 69.2289 30.0463C68.9079 30.3963 68.536 30.697 68.179 31.0063C67.4501 31.6164 66.7486 32.2819 65.9626 32.8194C60.1437 36.8545 59.3371 42.4751 60.9423 48.7943C61.2417 49.9584 61.9077 51.0368 62.4416 52.138C62.7011 52.6843 63.1333 53.1718 63.3225 53.737C63.4676 54.138 63.5052 54.794 63.2677 55.0336C63.0131 55.3029 62.3656 55.3256 61.9675 55.294C61.1033 55.2114 60.2329 54.5899 59.7332 53.9446C58.7487 52.6625 57.8094 51.2677 57.2453 49.7723C55.9823 46.4659 55.7912 42.9853 56.2179 39.4649C56.5827 36.4639 58.1329 34.0878 60.3202 32.1192C61.7654 30.8521 63.2953 29.7132 65.1227 28.2307Z" fill="#81ADC8"/>
</svg>
